<svg width="25" height="25" viewBox="0 0 25 25" fill="none" xmlns="http://www.w3.org/2000/svg">
<path d="M0.833313 6.66671V3.75004C0.833313 2.97649 1.1406 2.23463 1.68758 1.68765C2.23457 1.14066 2.97643 0.833374 3.74998 0.833374H6.66665M0.833313 18.3334V21.25C0.833313 22.0236 1.1406 22.7655 1.68758 23.3124C2.23457 23.8594 2.97643 24.1667 3.74998 24.1667H6.66665M18.3333 0.833374H21.25C22.0235 0.833374 22.7654 1.14066 23.3124 1.68765C23.8594 2.23463 24.1666 2.97649 24.1666 3.75004V6.66671M18.3333 24.1667H21.25C22.0235 24.1667 22.7654 23.8594 23.3124 23.3124C23.8594 22.7655 24.1666 22.0236 24.1666 21.25V18.3334M8.12498 12.5C8.12498 13.6604 8.58592 14.7732 9.40639 15.5936C10.2269 16.4141 11.3397 16.875 12.5 16.875C13.6603 16.875 14.7731 16.4141 15.5936 15.5936C16.414 14.7732 16.875 13.6604 16.875 12.5C16.875 11.3397 16.414 10.2269 15.5936 9.40645C14.7731 8.58598 13.6603 8.12504 12.5 8.12504C11.3397 8.12504 10.2269 8.58598 9.40639 9.40645C8.58592 10.2269 8.12498 11.3397 8.12498 12.5Z" stroke="#E1E5E7" stroke-width="1.45833" stroke-linecap="round" stroke-linejoin="round"/>
</svg>
